# xmcd
#
# Track frame offsets: 
#        150
#        26245
#        40960
#        52431
#        73366
#        96169
#        122838
#        139813
#        164185
#        198244
#
# Disc length: 2875 seconds
#
# Revision: 0
# Processed by: cddbd v1.5.2PL0 Copyright (c) Steve Scherf et al.
# Submitted via: ExactAudioCopy v1.2
#
DISCID=a50b390a
DTITLE=Ori Naftaly - A True Friend (Is Hard to Find)
DYEAR=2012
DGENRE=Blues
TTITLE0=Im a Woman (with Tempa)
TTITLE1=Devil Red Blues (with Nagar)
TTITLE2=Can't Get No Grindin' (with Sagol 59)
TTITLE3=Help Me (with Hammer)
TTITLE4=Dust My Broom (with Roy Young)
TTITLE5=Shes 19 Years Old (with Sagol 59)
TTITLE6=Don't Go No Further (with Sagol 59)
TTITLE7=Almost Cut My Hair (with Eleanor Tsaig)
TTITLE8=It's A Mans World (with Roy Young)
TTITLE9=A True Friend (Is Hard to Find) (with Eleanor Tsaig)
EXTD=
EXTT0=
EXTT1=
EXTT2=
EXTT3=
EXTT4=
EXTT5=
EXTT6=
EXTT7=
EXTT8=
EXTT9=
PLAYORDER=
